<svg width="130" height="130" viewBox="0 0 130 130" fill="none" xmlns="http://www.w3.org/2000/svg">
<path d="M121.32 66.3459C110.954 40.7814 88.4211 40.776 79.8959 18.1565C70.3105 -7.27613 30.3842 -4.9001 20.5474 18.4843C14.3772 33.1527 7.34946 46.1576 6.32906 65.2708C4.6085 97.4998 28.0776 124.286 59.8919 129.178C94.7538 134.539 137.186 105.475 121.32 66.3459Z" fill="url(#paint0_linear_4684_2169)"/>
<path d="M38.5986 87.1858C8.80869 72.3691 29.6095 42.7054 45.9482 61.8388C48.2307 64.5116 49.5219 65.685 53.6848 65.1251C62.4623 63.9443 71.5965 70.1217 66.5899 80.8152C63.0674 88.3389 47.7694 90.5872 38.5986 87.1858Z" fill="#FFAB86" fill-opacity="0.6"/>
<path d="M49.1748 34.5413C48.8996 33.8786 49.7477 33.3278 50.2793 33.824C57.769 40.8397 64.1823 36.8248 67.2021 34.0017C67.7296 33.5088 68.5869 34.0732 68.3003 34.7253C66.729 38.301 63.0535 40.8127 58.7725 40.8127C54.4199 40.8116 50.6993 38.2135 49.1748 34.5413Z" fill="#3C2D25"/>
<path d="M50.6982 21.573C51.7289 21.5732 52.5645 23.5049 52.5645 25.8831C52.5641 28.2606 51.7288 30.1865 50.6982 30.1868C49.6675 30.1868 48.8323 28.2608 48.832 25.8831C48.832 23.5047 49.6673 21.573 50.6982 21.573Z" fill="#3C2D25"/>
<path d="M66.2056 21.573C67.2355 21.5756 68.0718 23.5064 68.0718 25.8831C68.0715 28.2592 67.2353 30.1841 66.2056 30.1868C65.175 30.1868 64.3397 28.2608 64.3394 25.8831C64.3394 23.5047 65.1748 21.573 66.2056 21.573Z" fill="#3C2D25"/>
<defs>
<linearGradient id="paint0_linear_4684_2169" x1="65.4936" y1="48.4758" x2="65.4936" y2="129.817" gradientUnits="userSpaceOnUse">
<stop stop-color="#FF773D"/>
<stop offset="1" stop-color="#E1561B"/>
</linearGradient>
</defs>
</svg>
